<?xml version="1.0" encoding="iso-8859-1"?>
<!-- Uploaded to: SVG Repo, www.svgrepo.com, Generator: SVG Repo Mixer Tools -->
<svg fill="#000000" height="800px" width="800px" version="1.1" id="Layer_1" xmlns="http://www.w3.org/2000/svg" xmlns:xlink="http://www.w3.org/1999/xlink" 
	 viewBox="0 0 512 512" xml:space="preserve">
<g>
	<g>
		<path d="M486.013,79.62H25.987C11.658,79.62,0,91.278,0,105.607v300.786c0,14.329,11.658,25.987,25.987,25.987h460.026
			c14.329,0,25.987-11.658,25.987-25.987V105.607C512,91.278,500.342,79.62,486.013,79.62z M109.338,415.793l16.99-39.643
			c1.483-3.46,4.874-5.696,8.64-5.696h242.065c3.765,0,7.156,2.236,8.64,5.697l16.989,39.642H109.338z M495.413,406.393
			c0,5.183-4.217,9.4-9.4,9.4h-65.305l-19.79-46.176c-4.1-9.568-13.476-15.75-23.886-15.75H134.967
			c-10.41,0-19.786,6.183-23.886,15.75l-19.789,46.176H25.987c-5.183,0-9.4-4.217-9.4-9.4V105.607c0-5.183,4.217-9.4,9.4-9.4
			h460.026c5.183,0,9.4,4.217,9.4,9.4V406.393z"/>
	</g>
</g>
<g>
	<g>
		<path d="M397.541,123.853h-17.689c-4.58,0-8.294,3.713-8.294,8.294c0,4.58,3.712,8.294,8.294,8.294h17.689
			c4.58,0,8.294-3.713,8.294-8.294C405.835,127.567,402.121,123.853,397.541,123.853z"/>
	</g>
</g>
<g>
	<g>
		<path d="M344.466,123.853H52.527c-9.452,0-17.14,7.689-17.14,17.14v176.933c0,9.452,7.689,17.14,17.14,17.14H87.91
			c4.58,0,8.294-3.713,8.294-8.294c0-4.58-3.713-8.294-8.294-8.294H52.527c-0.305,0-0.553-0.248-0.553-0.553V140.994
			c0-0.305,0.248-0.553,0.553-0.553h291.94c4.58,0,8.294-3.713,8.294-8.294C352.76,127.567,349.047,123.853,344.466,123.853z"/>
	</g>
</g>
<g>
	<g>
		<path d="M459.473,123.853h-26.54c-4.58,0-8.294,3.713-8.294,8.294c0,4.58,3.713,8.294,8.294,8.294h26.54
			c0.305,0,0.553,0.248,0.553,0.553v176.933c0,0.305-0.248,0.553-0.553,0.553H123.304c-4.58,0-8.294,3.713-8.294,8.294
			c0,4.58,3.713,8.294,8.294,8.294h336.169c9.452,0,17.14-7.689,17.14-17.14V140.994
			C476.613,131.542,468.924,123.853,459.473,123.853z"/>
	</g>
</g>
<g>
	<g>
		<path d="M149.929,389.253h-0.089c-4.58,0-8.25,3.713-8.25,8.294c0,4.58,3.758,8.294,8.338,8.294c4.58,0,8.294-3.713,8.294-8.294
			C158.222,392.966,154.509,389.253,149.929,389.253z"/>
	</g>
</g>
<g>
	<g>
		<path d="M362.248,389.253h-0.089c-4.58,0-8.249,3.713-8.249,8.294c0,4.58,3.758,8.294,8.338,8.294c4.58,0,8.294-3.713,8.294-8.294
			C370.542,392.966,366.829,389.253,362.248,389.253z"/>
	</g>
</g>
<g>
	<g>
		<path d="M371.006,185.78H140.994c-24.085,0-43.68,19.595-43.68,43.68s19.595,43.68,43.68,43.68h230.013
			c24.085,0,43.68-19.595,43.68-43.68S395.091,185.78,371.006,185.78z M140.994,256.553c-14.939,0-27.093-12.154-27.093-27.093
			c0-14.939,12.154-27.093,27.093-27.093c14.939,0,27.093,12.154,27.093,27.093C168.086,244.399,155.932,256.553,140.994,256.553z
			 M197.305,256.553h-22.086c5.912-7.452,9.456-16.864,9.456-27.093s-3.544-19.641-9.456-27.093h22.082
			c4.045,8.406,6.172,17.68,6.172,27.093C203.473,238.86,201.345,248.152,197.305,256.553z M259.804,256.553h-44.522
			c3.144-8.64,4.778-17.828,4.778-27.093c0-9.279-1.64-18.455-4.785-27.093h44.529c-2.145,8.828-3.251,17.897-3.251,27.093
			C256.553,238.657,257.66,247.725,259.804,256.553z M336.782,256.553h-59.823c-2.522-8.768-3.818-17.853-3.818-27.093
			c0-9.239,1.296-18.324,3.817-27.093h59.824c-5.912,7.452-9.456,16.864-9.456,27.093S330.87,249.101,336.782,256.553z
			 M371.006,256.553c-14.939,0-27.093-12.154-27.093-27.093c0-14.939,12.154-27.093,27.093-27.093s27.093,12.154,27.093,27.093
			C398.099,244.399,385.945,256.553,371.006,256.553z"/>
	</g>
</g>
</svg>